<mxfile host="app.diagrams.net" agent="Mozilla/5.0 (Windows NT 10.0; Win64; x64) AppleWebKit/537.36 (KHTML, like Gecko) Chrome/138.0.0.0 Safari/537.36" version="28.0.4">
  <diagram name="Page-1" id="U_SA3HE6gFZlru9x9uHu">
    <mxGraphModel dx="1042" dy="562" grid="1" gridSize="10" guides="1" tooltips="1" connect="1" arrows="1" fold="1" page="1" pageScale="1" pageWidth="850" pageHeight="1100" math="0" shadow="0">
      <root>
        <mxCell id="0" />
        <mxCell id="1" parent="0" />
        <mxCell id="Y4zUcHu51oirmXJA9-co-7" style="edgeStyle=orthogonalEdgeStyle;rounded=0;orthogonalLoop=1;jettySize=auto;html=1;" edge="1" parent="1" source="Y4zUcHu51oirmXJA9-co-1" target="Y4zUcHu51oirmXJA9-co-4">
          <mxGeometry relative="1" as="geometry" />
        </mxCell>
        <mxCell id="Y4zUcHu51oirmXJA9-co-1" value="Composite Provider&lt;div&gt;f.01&lt;/div&gt;" style="shape=process;whiteSpace=wrap;html=1;backgroundOutline=1;" vertex="1" parent="1">
          <mxGeometry x="55" y="90" width="120" height="60" as="geometry" />
        </mxCell>
        <mxCell id="Y4zUcHu51oirmXJA9-co-15" style="edgeStyle=orthogonalEdgeStyle;rounded=0;orthogonalLoop=1;jettySize=auto;html=1;entryX=0;entryY=0.5;entryDx=0;entryDy=0;" edge="1" parent="1" source="Y4zUcHu51oirmXJA9-co-2" target="Y4zUcHu51oirmXJA9-co-13">
          <mxGeometry relative="1" as="geometry" />
        </mxCell>
        <mxCell id="Y4zUcHu51oirmXJA9-co-20" style="edgeStyle=orthogonalEdgeStyle;rounded=0;orthogonalLoop=1;jettySize=auto;html=1;entryX=0;entryY=0.5;entryDx=0;entryDy=0;" edge="1" parent="1" source="Y4zUcHu51oirmXJA9-co-2" target="Y4zUcHu51oirmXJA9-co-19">
          <mxGeometry relative="1" as="geometry" />
        </mxCell>
        <mxCell id="Y4zUcHu51oirmXJA9-co-23" style="edgeStyle=orthogonalEdgeStyle;rounded=0;orthogonalLoop=1;jettySize=auto;html=1;entryX=0;entryY=0.5;entryDx=0;entryDy=0;" edge="1" parent="1" source="Y4zUcHu51oirmXJA9-co-2" target="Y4zUcHu51oirmXJA9-co-21">
          <mxGeometry relative="1" as="geometry" />
        </mxCell>
        <mxCell id="Y4zUcHu51oirmXJA9-co-2" value="PPOS (detail)&lt;br&gt;(Master Employe)" style="shape=cylinder3;whiteSpace=wrap;html=1;boundedLbl=1;backgroundOutline=1;size=15;" vertex="1" parent="1">
          <mxGeometry x="60" y="300" width="110" height="80" as="geometry" />
        </mxCell>
        <mxCell id="Y4zUcHu51oirmXJA9-co-18" style="edgeStyle=orthogonalEdgeStyle;rounded=0;orthogonalLoop=1;jettySize=auto;html=1;" edge="1" parent="1" source="Y4zUcHu51oirmXJA9-co-3" target="Y4zUcHu51oirmXJA9-co-17">
          <mxGeometry relative="1" as="geometry" />
        </mxCell>
        <mxCell id="Y4zUcHu51oirmXJA9-co-26" style="edgeStyle=orthogonalEdgeStyle;rounded=0;orthogonalLoop=1;jettySize=auto;html=1;entryX=0.5;entryY=1;entryDx=0;entryDy=0;" edge="1" parent="1" source="Y4zUcHu51oirmXJA9-co-3" target="Y4zUcHu51oirmXJA9-co-24">
          <mxGeometry relative="1" as="geometry" />
        </mxCell>
        <mxCell id="Y4zUcHu51oirmXJA9-co-3" value="aDSO&lt;br&gt;DM_Final" style="shape=cylinder3;whiteSpace=wrap;html=1;boundedLbl=1;backgroundOutline=1;size=15;fillColor=#dae8fc;strokeColor=#6c8ebf;" vertex="1" parent="1">
          <mxGeometry x="440" y="220" width="90" height="70" as="geometry" />
        </mxCell>
        <mxCell id="Y4zUcHu51oirmXJA9-co-4" value="Query Aggregate (27* Key Figure)" style="rounded=1;whiteSpace=wrap;html=1;fillColor=#d5e8d4;strokeColor=#82b366;" vertex="1" parent="1">
          <mxGeometry x="260" y="90" width="120" height="60" as="geometry" />
        </mxCell>
        <mxCell id="Y4zUcHu51oirmXJA9-co-8" style="edgeStyle=orthogonalEdgeStyle;rounded=0;orthogonalLoop=1;jettySize=auto;html=1;entryX=0;entryY=0;entryDx=0;entryDy=37.5;entryPerimeter=0;" edge="1" parent="1" source="Y4zUcHu51oirmXJA9-co-4" target="Y4zUcHu51oirmXJA9-co-3">
          <mxGeometry relative="1" as="geometry">
            <Array as="points">
              <mxPoint x="410" y="120" />
              <mxPoint x="410" y="258" />
            </Array>
          </mxGeometry>
        </mxCell>
        <mxCell id="Y4zUcHu51oirmXJA9-co-13" value="TRF (Hana Runtime)&lt;br&gt;Total MP&amp;nbsp;" style="rounded=0;whiteSpace=wrap;html=1;fillColor=#dae8fc;strokeColor=#6c8ebf;" vertex="1" parent="1">
          <mxGeometry x="260" y="270" width="120" height="50" as="geometry" />
        </mxCell>
        <mxCell id="Y4zUcHu51oirmXJA9-co-16" style="edgeStyle=orthogonalEdgeStyle;rounded=0;orthogonalLoop=1;jettySize=auto;html=1;entryX=0;entryY=0;entryDx=0;entryDy=37.5;entryPerimeter=0;" edge="1" parent="1" source="Y4zUcHu51oirmXJA9-co-13" target="Y4zUcHu51oirmXJA9-co-3">
          <mxGeometry relative="1" as="geometry" />
        </mxCell>
        <mxCell id="Y4zUcHu51oirmXJA9-co-17" value="Query Final (powerBI)" style="rounded=1;whiteSpace=wrap;html=1;fillColor=#dae8fc;strokeColor=#6c8ebf;" vertex="1" parent="1">
          <mxGeometry x="620" y="227.5" width="140" height="55" as="geometry" />
        </mxCell>
        <mxCell id="Y4zUcHu51oirmXJA9-co-19" value="Query Detail MP" style="rounded=1;whiteSpace=wrap;html=1;fillColor=#dae8fc;strokeColor=#6c8ebf;" vertex="1" parent="1">
          <mxGeometry x="170" y="460" width="120" height="60" as="geometry" />
        </mxCell>
        <mxCell id="Y4zUcHu51oirmXJA9-co-21" value="TRF (Hana Runtime)&lt;br&gt;Total MP" style="rounded=0;whiteSpace=wrap;html=1;fillColor=#dae8fc;strokeColor=#6c8ebf;" vertex="1" parent="1">
          <mxGeometry x="260" y="330" width="120" height="50" as="geometry" />
        </mxCell>
        <mxCell id="Y4zUcHu51oirmXJA9-co-22" style="edgeStyle=orthogonalEdgeStyle;rounded=0;orthogonalLoop=1;jettySize=auto;html=1;entryX=0;entryY=0;entryDx=0;entryDy=37.5;entryPerimeter=0;" edge="1" parent="1" source="Y4zUcHu51oirmXJA9-co-21" target="Y4zUcHu51oirmXJA9-co-3">
          <mxGeometry relative="1" as="geometry" />
        </mxCell>
        <mxCell id="Y4zUcHu51oirmXJA9-co-27" style="edgeStyle=orthogonalEdgeStyle;rounded=0;orthogonalLoop=1;jettySize=auto;html=1;" edge="1" parent="1" source="Y4zUcHu51oirmXJA9-co-24">
          <mxGeometry relative="1" as="geometry">
            <mxPoint x="470" y="220" as="targetPoint" />
          </mxGeometry>
        </mxCell>
        <mxCell id="Y4zUcHu51oirmXJA9-co-24" value="TRF Formula Per Indciator" style="rounded=0;whiteSpace=wrap;html=1;fillColor=#dae8fc;strokeColor=#6c8ebf;" vertex="1" parent="1">
          <mxGeometry x="520" y="130" width="120" height="40" as="geometry" />
        </mxCell>
      </root>
    </mxGraphModel>
  </diagram>
</mxfile>
